<?xml version="1.0" encoding="utf-8"?>
<!-- Generator: Adobe Illustrator 24.0.1, SVG Export Plug-In . SVG Version: 6.00 Build 0)  -->
<svg version="1.1" xmlns="http://www.w3.org/2000/svg" xmlns:xlink="http://www.w3.org/1999/xlink" x="0px" y="0px"
	 viewBox="0 0 11 11" style="enable-background:new 0 0 11 11;" xml:space="preserve">
<style type="text/css">
	.st0{fill:#FF0000;}
	.st1{clip-path:url(#SVGID_2_);}
</style>
<g id="Layer_2">
	<polygon class="st0" points="0.9,4.2 1.3,6 5.6,9.7 9.9,5.7 10.3,4 9.9,2.6 8.7,1.6 7,1.5 5.6,2.8 4.4,1.7 2.8,1.5 1.5,2.2 
		0.9,3.9 	"/>
</g>
<g id="Layer_1">
	<g>
		<g>
			<defs>
				<rect id="SVGID_1_" x="0.5" y="0.5" width="10" height="10"/>
			</defs>
			<clipPath id="SVGID_2_">
				<use xlink:href="#SVGID_1_"  style="overflow:visible;"/>
			</clipPath>
			<g class="st1">
				<path class="st0" d="M5.5,10c-0.1,0-0.3-0.1-0.4-0.1C4.7,9.5,4.3,9.2,4,8.9l0,0C3,8,2.1,7.3,1.5,6.6c-0.7-0.8-1-1.6-1-2.4
					s0.3-1.6,0.8-2.1c0.5-0.6,1.2-0.9,2-0.9c0.6,0,1.1,0.2,1.6,0.5c0.2,0.2,0.4,0.4,0.6,0.7c0.2-0.3,0.4-0.5,0.6-0.7
					c0.5-0.4,1-0.5,1.6-0.5c0.8,0,1.5,0.3,2,0.9s0.8,1.3,0.8,2.1s-0.3,1.6-1,2.4C8.9,7.2,8.1,8,7.1,8.8C6.8,9.1,6.4,9.4,6,9.8
					C5.8,9.9,5.7,10,5.5,10z M3.3,1.7c-0.6,0-1.1,0.2-1.5,0.6C1.4,2.8,1.1,3.4,1.1,4.1S1.4,5.4,2,6.2c0.6,0.6,1.4,1.4,2.4,2.2l0,0
					c0.3,0.3,0.7,0.6,1.1,1c0.4-0.4,0.8-0.7,1.1-1c1-0.8,1.8-1.6,2.4-2.3C9.6,5.4,9.9,4.7,9.9,4S9.7,2.7,9.3,2.3
					C8.9,1.9,8.4,1.7,7.7,1.7c-0.4,0-0.9,0.1-1.2,0.4C6.2,2.3,6,2.6,5.9,2.9C5.8,3,5.7,3,5.5,3C5.4,3,5.3,3,5.2,2.9
					C5.1,2.6,4.9,2.3,4.5,2.1C4.2,1.8,3.8,1.7,3.3,1.7z"/>
			</g>
		</g>
	</g>
</g>
</svg>
